<?xml version="1.0" standalone="no"?>
<!DOCTYPE svg PUBLIC "-//W3C//DTD SVG 20010904//EN"
 "http://www.w3.org/TR/2001/REC-SVG-20010904/DTD/svg10.dtd">
<svg version="1.0" xmlns="http://www.w3.org/2000/svg"
 width="1000.000000pt" height="1000.000000pt" viewBox="0 0 1000.000000 1000.000000"
 preserveAspectRatio="xMidYMid meet">
  <style>
    @media (prefers-color-scheme: dark) {
        path {
          fill: #ab72ff;
        }
    }
 </style>
<metadata>
Created by potrace 1.16, written by Peter Selinger 2001-2019
</metadata>
<g transform="translate(0.000000,1000.000000) scale(0.100000,-0.100000)"
fill="#7952b3" stroke="none">
<path d="M0 5000 l0 -5000 5000 0 5000 0 0 5000 0 5000 -5000 0 -5000 0 0
-5000z m9000 2625 l0 -1875 -165 0 -165 0 -6 28 c-43 192 -113 423 -185 607
-60 153 -220 466 -312 612 -603 948 -1585 1574 -2697 1718 -262 34 -678 34
-940 0 -919 -119 -1756 -569 -2365 -1270 -311 -359 -572 -819 -722 -1275 -29
-89 -86 -297 -107 -392 l-6 -28 -165 0 -165 0 0 1875 0 1875 4000 0 4000 0 0
-1875z m-3635 860 c660 -70 1269 -316 1805 -731 148 -114 470 -436 584 -584
415 -536 661 -1145 731 -1805 19 -182 19 -548 0 -730 -70 -660 -316 -1269
-731 -1805 -114 -148 -436 -470 -584 -584 -536 -415 -1145 -661 -1805 -731
-182 -19 -548 -19 -730 0 -660 70 -1269 316 -1805 731 -148 114 -470 436 -584
584 -415 536 -661 1145 -731 1805 -19 182 -19 548 0 730 70 660 316 1269 731
1805 114 148 436 470 584 584 531 411 1142 659 1793 730 170 19 569 19 742 1z
m-4029 -4262 c43 -193 113 -424 185 -608 60 -153 220 -466 312 -612 603 -948
1585 -1574 2697 -1718 262 -34 678 -34 940 0 919 119 1756 569 2365 1270 311
359 572 819 722 1275 29 89 86 297 107 393 l6 27 165 0 165 0 0 -1875 0 -1875
-4000 0 -4000 0 0 1875 0 1875 165 0 165 0 6 -27z"/>
<path d="M3110 5010 l0 -2780 943 0 c988 1 1379 9 1587 35 443 55 783 191
1089 434 123 99 214 198 306 336 179 266 256 534 258 890 1 193 -9 283 -50
439 -64 245 -163 418 -347 602 -196 196 -412 317 -706 393 -87 23 -106 31
-108 48 -2 15 6 24 29 33 58 24 202 120 284 190 172 145 299 320 361 501 42
123 56 207 61 364 21 618 -270 999 -909 1190 -284 86 -643 104 -2040 105
l-758 0 0 -2780z m2254 2121 c402 -54 624 -218 681 -503 17 -89 20 -272 4
-385 -14 -105 -66 -255 -112 -325 -111 -167 -324 -289 -591 -340 -104 -20
-153 -21 -808 -25 l-698 -4 0 801 0 802 718 -5 c469 -3 748 -9 806 -16z m122
-2211 c338 -27 521 -81 709 -210 214 -148 307 -327 336 -647 26 -290 -24 -545
-140 -709 -155 -221 -386 -362 -689 -423 -248 -51 -321 -54 -1114 -58 l-748
-4 0 1030 0 1031 759 0 c418 0 816 -5 887 -10z"/>
</g>
</svg>
