<?xml version="1.0" standalone="no"?>
<!DOCTYPE svg PUBLIC "-//W3C//DTD SVG 20010904//EN"
 "http://www.w3.org/TR/2001/REC-SVG-20010904/DTD/svg10.dtd">
<svg version="1.0" xmlns="http://www.w3.org/2000/svg"
 width="1000.000000pt" height="1000.000000pt" viewBox="0 0 1000.000000 1000.000000"
 preserveAspectRatio="xMidYMid meet">

<g transform="translate(0.000000,1000.000000) scale(0.100000,-0.100000)"
fill="#000000" stroke="none">
<path d="M0 5000 l0 -5000 5000 0 5000 0 0 5000 0 5000 -5000 0 -5000 0 0
-5000z m9500 2500 l0 -2001 -142 3 -142 3 -17 120 c-176 1212 -895 2311 -1944
2971 -1671 1051 -3856 804 -5255 -596 -643 -643 -1070 -1488 -1199 -2375 l-17
-120 -142 -3 -142 -3 0 2001 0 2000 4500 0 4500 0 0 -2000z m-4170 1240 c1601
-145 2932 -1286 3314 -2842 74 -301 106 -570 106 -898 0 -245 -10 -379 -46
-600 -238 -1484 -1345 -2685 -2806 -3044 -165 -41 -402 -81 -568 -96 -148 -13
-512 -13 -660 0 -1496 135 -2763 1140 -3234 2563 -86 259 -151 573 -176 847
-13 148 -13 512 0 660 135 1496 1140 2763 2563 3234 250 83 573 151 827 174
136 13 545 14 680 2z m-4529 -4365 c176 -1212 895 -2311 1944 -2971 1671
-1051 3856 -804 5255 596 643 643 1070 1488 1199 2375 l17 120 142 3 142 3 0
-2001 0 -2000 -4500 0 -4500 0 0 2000 0 2001 142 -3 142 -3 17 -120z"/>
<path d="M3150 5100 l0 -2770 998 0 c548 0 1089 5 1202 10 448 22 739 83 1015
214 395 188 674 463 825 813 149 347 170 821 51 1183 -36 107 -126 279 -195
371 -119 158 -307 314 -485 404 -92 46 -244 101 -353 128 -121 31 -127 47 -32
96 152 78 340 237 448 379 166 218 242 499 216 809 -16 202 -49 324 -126 474
-174 337 -595 567 -1146 625 -233 24 -666 34 -1565 34 l-853 0 0 -2770z m2100
2120 c325 -23 519 -87 660 -217 77 -71 122 -148 149 -255 53 -205 27 -497 -59
-670 -108 -217 -335 -360 -660 -414 -91 -15 -195 -18 -782 -21 l-678 -4 0 795
0 796 613 0 c336 0 677 -5 757 -10z m245 -2210 c285 -21 424 -53 590 -135 339
-168 475 -412 475 -855 0 -278 -63 -477 -205 -643 -150 -176 -382 -301 -655
-351 -244 -45 -306 -48 -1077 -53 l-743 -5 0 1026 0 1026 738 0 c405 0 800 -5
877 -10z"/>
</g>
</svg>
